name rise43.5482peak65.4966fall89.1036.mot
datacolumns 19
datarows 12
range 24.06323400000000 24.08156800000000
endheader
time	ground_force1_vx	ground_force1_vy	ground_force1_vz	ground_force1_px	ground_force1_py	ground_force1_pz	ground_force2_vx	ground_force2_vy	ground_force2_vz	ground_force2_px	ground_force2_py	ground_force2_pz	ground_torque1_x	ground_torque1_y	ground_torque1_z	ground_torque2_x	ground_torque2_y	ground_torque2_z	
24.06323400000000	10.10106700000000	723.31443600000000	46.38554400000000	0.16836200000000	0.00000000000000	0.11604700000000	0.00000000000000	0.00000000000000	0.00000000000000	0.00000000000000	0.00000000000000	0.00000000000000	0.00000000000000	13.36458800000000	0.00000000000000	0.00000000000000	0.00000000000000	0.00000000000000	
24.06490600000000	9.57957700000000	723.77230499999996	46.34421500000000	0.16725200000000	0.00000000000000	0.11597100000000	0.00000000000000	0.00000000000000	0.00000000000000	0.00000000000000	0.00000000000000	0.00000000000000	0.00000000000000	13.41628300000000	0.00000000000000	0.00000000000000	0.00000000000000	0.00000000000000	
24.06657400000000	9.04582300000000	724.23131300000000	46.30347300000000	0.16613400000000	0.00000000000000	0.11589500000000	0.00000000000000	0.00000000000000	0.00000000000000	0.00000000000000	0.00000000000000	0.00000000000000	0.00000000000000	13.47080200000000	0.00000000000000	0.00000000000000	0.00000000000000	0.00000000000000	
24.06823300000000	8.50019500000000	724.69114000000002	46.26311000000000	0.16500900000000	0.00000000000000	0.11582000000000	0.00000000000000	0.00000000000000	0.00000000000000	0.00000000000000	0.00000000000000	0.00000000000000	0.00000000000000	13.52804900000000	0.00000000000000	0.00000000000000	0.00000000000000	0.00000000000000	
24.06992200000000	7.94310900000000	725.15155200000004	46.22293300000000	0.16387900000000	0.00000000000000	0.11574600000000	0.00000000000000	0.00000000000000	0.00000000000000	0.00000000000000	0.00000000000000	0.00000000000000	0.00000000000000	13.58792600000000	0.00000000000000	0.00000000000000	0.00000000000000	0.00000000000000	
24.07156700000000	7.37501000000000	725.61239899999998	46.18276200000000	0.16274500000000	0.00000000000000	0.11567200000000	0.00000000000000	0.00000000000000	0.00000000000000	0.00000000000000	0.00000000000000	0.00000000000000	0.00000000000000	13.65033500000000	0.00000000000000	0.00000000000000	0.00000000000000	0.00000000000000	
24.07323800000000	6.79637000000000	726.07360800000004	46.14243600000000	0.16160900000000	0.00000000000000	0.11559900000000	0.00000000000000	0.00000000000000	0.00000000000000	0.00000000000000	0.00000000000000	0.00000000000000	0.00000000000000	13.71518100000000	0.00000000000000	0.00000000000000	0.00000000000000	0.00000000000000	
24.07490900000000	6.20768300000000	726.53519100000005	46.10180700000000	0.16047100000000	0.00000000000000	0.11552600000000	0.00000000000000	0.00000000000000	0.00000000000000	0.00000000000000	0.00000000000000	0.00000000000000	0.00000000000000	13.78237000000000	0.00000000000000	0.00000000000000	0.00000000000000	0.00000000000000	
24.07657500000000	5.60946100000000	726.99723300000005	46.06074700000000	0.15933400000000	0.00000000000000	0.11545400000000	0.00000000000000	0.00000000000000	0.00000000000000	0.00000000000000	0.00000000000000	0.00000000000000	0.00000000000000	13.85180700000000	0.00000000000000	0.00000000000000	0.00000000000000	0.00000000000000	
24.07824000000000	5.00224000000000	727.45989299999997	46.01914100000000	0.15819800000000	0.00000000000000	0.11538200000000	0.00000000000000	0.00000000000000	0.00000000000000	0.00000000000000	0.00000000000000	0.00000000000000	0.00000000000000	13.92340000000000	0.00000000000000	0.00000000000000	0.00000000000000	0.00000000000000	
24.07990200000000	4.38656900000000	727.92340400000000	45.97689600000000	0.15706500000000	0.00000000000000	0.11531000000000	0.00000000000000	0.00000000000000	0.00000000000000	0.00000000000000	0.00000000000000	0.00000000000000	0.00000000000000	13.99705500000000	0.00000000000000	0.00000000000000	0.00000000000000	0.00000000000000	
24.08156800000000	3.76301300000000	728.38806499999998	45.93393100000000	0.15593500000000	0.00000000000000	0.11523900000000	0.00000000000000	0.00000000000000	0.00000000000000	0.00000000000000	0.00000000000000	0.00000000000000	0.00000000000000	14.07268300000000	0.00000000000000	0.00000000000000	0.00000000000000	0.00000000000000	
